<?xml version="1.0" encoding="UTF-8" standalone="no"?>
<!-- Created with Inkscape (http://www.inkscape.org/) -->

<svg
   xmlns:ns0="http://www.iki.fi/pav/software/textext/"
   xmlns:dc="http://purl.org/dc/elements/1.1/"
   xmlns:cc="http://creativecommons.org/ns#"
   xmlns:rdf="http://www.w3.org/1999/02/22-rdf-syntax-ns#"
   xmlns:svg="http://www.w3.org/2000/svg"
   xmlns="http://www.w3.org/2000/svg"
   xmlns:sodipodi="http://sodipodi.sourceforge.net/DTD/sodipodi-0.dtd"
   xmlns:inkscape="http://www.inkscape.org/namespaces/inkscape"
   sodipodi:docname="logo_small.svg"
   inkscape:version="0.92.3 (2405546, 2018-03-11)"
   version="1.1"
   id="svg2"
   viewBox="0 0 100 100"
   height="100"
   width="100"
   inkscape:export-filename="/home/joghurt/phd/numerics/tenpy/doc/images/logo_small.png"
   inkscape:export-xdpi="299.72"
   inkscape:export-ydpi="299.72">
  <sodipodi:namedview
     inkscape:window-maximized="1"
     inkscape:window-y="29"
     inkscape:window-x="1920"
     inkscape:window-height="1047"
     inkscape:window-width="1916"
     showguides="false"
     inkscape:snap-bbox-midpoints="false"
     inkscape:bbox-paths="true"
     inkscape:snap-bbox="true"
     inkscape:snap-text-baseline="false"
     showgrid="true"
     inkscape:current-layer="svg2"
     inkscape:document-units="px"
     inkscape:cy="49.2306"
     inkscape:cx="38.30939"
     inkscape:zoom="7.9417885"
     inkscape:pageshadow="2"
     inkscape:pageopacity="0.0"
     borderopacity="1.0"
     bordercolor="#666666"
     pagecolor="#ffffff"
     id="base"
     inkscape:object-nodes="true"
     units="px"
     scale-x="1"
     inkscape:snap-others="true"
     inkscape:snap-center="true"
     inkscape:snap-nodes="false"
     inkscape:object-paths="true"
     inkscape:bbox-nodes="true">
    <inkscape:grid
       spacingy="1"
       spacingx="1"
       units="px"
       id="grid3411"
       type="xygrid"
       empspacing="10"
       visible="true" />
  </sodipodi:namedview>
  <defs
     id="defs4" />
  <metadata
     id="metadata7">
    <rdf:RDF>
      <cc:Work
         rdf:about="">
        <dc:format>image/svg+xml</dc:format>
        <dc:type
           rdf:resource="http://purl.org/dc/dcmitype/StillImage" />
        <dc:title></dc:title>
      </cc:Work>
    </rdf:RDF>
  </metadata>
  <g
     transform="translate(0,-958.61222)"
     id="layer1"
     inkscape:groupmode="layer"
     inkscape:label="Ebene 1" />
  <g
     transform="translate(0,22.883853)"
     inkscape:label="Ebene 2"
     id="layer2"
     inkscape:groupmode="layer"
     style="display:inline">
    <rect
       y="27.599953"
       x="20.483807"
       height="19.032389"
       width="59.032387"
       id="rect4317"
       style="fill:#7f0000;fill-opacity:1;stroke:#000000;stroke-width:0.96761191;stroke-linecap:round;stroke-linejoin:round;stroke-miterlimit:25;stroke-dasharray:none"
       rx="2.9516194"
       ry="2.8548584" />
    <rect
       y="-2.4053898"
       x="20.478464"
       height="19.043074"
       width="24.043074"
       id="rect4324"
       style="fill:#007f00;fill-opacity:1;stroke:#000000;stroke-width:0.95692629;stroke-linecap:round;stroke-linejoin:round;stroke-miterlimit:25;stroke-dasharray:none"
       rx="2.885169"
       ry="2.8564608" />
    <rect
       style="fill:#007f00;fill-opacity:1;stroke:#000000;stroke-width:0.95692629;stroke-linecap:round;stroke-linejoin:round;stroke-miterlimit:25;stroke-dasharray:none"
       id="rect4327"
       width="24.043074"
       height="19.043074"
       x="55.478462"
       y="-2.4053898"
       ry="2.8564608"
       rx="2.885169" />
  </g>
  <g
     transform="translate(0,22.883853)"
     inkscape:label="Ebene 3"
     id="layer3"
     inkscape:groupmode="layer">
    <flowRoot
       style="font-style:normal;font-variant:normal;font-weight:normal;font-stretch:normal;line-height:0.01%;font-family:'Latin Modern Roman Caps';-inkscape-font-specification:'Latin Modern Roman Caps';text-align:center;letter-spacing:0px;word-spacing:0px;text-anchor:middle;fill:#000000;fill-opacity:1;stroke:none;stroke-width:1px;stroke-linecap:butt;stroke-linejoin:miter;stroke-opacity:1"
       id="flowRoot4269"
       xml:space="preserve"><flowRegion
         id="flowRegion4271"><rect
           style="font-style:normal;font-variant:normal;font-weight:normal;font-stretch:normal;font-size:20px;font-family:'Latin Modern Roman Caps';-inkscape-font-specification:'Latin Modern Roman Caps';text-align:center;text-anchor:middle"
           y="7.0866141"
           x="21.259842"
           height="24.80315"
           width="28.346457"
           id="rect4273" /></flowRegion><flowPara
         style="font-style:normal;font-variant:normal;font-weight:normal;font-stretch:normal;font-size:20px;line-height:1.25;font-family:'Latin Modern Roman Caps';-inkscape-font-specification:'Latin Modern Roman Caps'"
         id="flowPara4275">Ten</flowPara></flowRoot>    <flowRoot
       transform="translate(2.000077,2.9560658)"
       style="font-style:normal;font-variant:normal;font-weight:normal;font-stretch:normal;line-height:0.01%;font-family:'Latin Modern Roman Caps';-inkscape-font-specification:'Latin Modern Roman Caps';letter-spacing:0px;word-spacing:0px;fill:#000000;fill-opacity:1;stroke:none;stroke-width:1px;stroke-linecap:butt;stroke-linejoin:miter;stroke-opacity:1"
       id="flowRoot4277"
       xml:space="preserve"><flowRegion
         id="flowRegion4279"><rect
           style="font-style:normal;font-variant:normal;font-weight:normal;font-stretch:normal;font-family:'Latin Modern Roman Caps';-inkscape-font-specification:'Latin Modern Roman Caps'"
           y="7.0866141"
           x="21.259842"
           height="24.80315"
           width="28.346457"
           id="rect4281" /></flowRegion><flowPara
         style="font-style:normal;font-variant:normal;font-weight:normal;font-stretch:normal;font-size:15px;line-height:1.25;font-family:'Latin Modern Roman Caps';-inkscape-font-specification:'Latin Modern Roman Caps'"
         id="flowPara4283">Ten</flowPara></flowRoot>  </g>
  <g
     ns0:preamble=""
     ns0:text="\\textsc{Te}"
     word-spacing="normal"
     letter-spacing="normal"
     font-size-adjust="none"
     font-stretch="normal"
     font-weight="normal"
     font-variant="normal"
     font-style="normal"
     stroke-miterlimit="10.433"
     xml:space="preserve"
     transform="matrix(1.4976,0,0,-1.4976,-311.80742,1094.0373)"
     id="g4909"
     style="font-style:normal;font-variant:normal;font-weight:normal;font-stretch:normal;letter-spacing:normal;word-spacing:normal;text-anchor:start;fill:#ffffff;fill-opacity:1;fill-rule:evenodd;stroke:#ffffff;stroke-linecap:butt;stroke-linejoin:miter;stroke-miterlimit:10.43299961;stroke-dasharray:none;stroke-dashoffset:0;stroke-opacity:1"><path
       id="path4911"
       d="m 230.55,713.87 h -6.41 l -0.19,-2.24 h 0.25 c 0.14,1.67 0.34,1.93 1.9,1.93 0.19,0 0.48,0 0.58,-0.02 0.22,-0.03 0.22,-0.15 0.22,-0.38 v -5.25 c 0,-0.34 0,-0.48 -1.05,-0.48 h -0.39 v -0.31 c 0.4,0.03 1.42,0.03 1.88,0.03 0.46,0 1.48,0 1.89,-0.03 v 0.31 h -0.4 c -1.04,0 -1.04,0.14 -1.04,0.48 v 5.25 c 0,0.23 0,0.35 0.22,0.38 0.09,0.02 0.38,0.02 0.57,0.02 1.56,0 1.77,-0.26 1.91,-1.93 h 0.25 z"
       inkscape:connector-curvature="0"
       style="fill:#ffffff;stroke:#ffffff;stroke-width:0" /><path
       id="path4913"
       d="m 236.12,712.21 h -4.43 v -0.25 c 0.67,0 0.72,-0.05 0.72,-0.46 v -3.66 c 0,-0.41 -0.05,-0.47 -0.72,-0.47 v -0.25 h 4.55 l 0.29,1.93 h -0.25 c -0.17,-1.2 -0.4,-1.68 -1.68,-1.68 h -1.08 c -0.34,0 -0.39,0.03 -0.39,0.43 v 1.84 h 0.69 c 0.74,0 0.86,-0.2 0.86,-0.86 h 0.25 v 1.98 h -0.25 c 0,-0.67 -0.12,-0.87 -0.86,-0.87 h -0.69 v 1.65 c 0,0.39 0.05,0.42 0.39,0.42 h 1.02 c 1.16,0 1.42,-0.34 1.52,-1.43 h 0.25 z"
       inkscape:connector-curvature="0"
       style="fill:#ffffff;stroke:#ffffff;stroke-width:0" /></g>  <g
     id="g4967"
     transform="matrix(1.4976,0,0,-1.4976,-273.67405,1094.0822)"
     xml:space="preserve"
     stroke-miterlimit="10.433"
     font-style="normal"
     font-variant="normal"
     font-weight="normal"
     font-stretch="normal"
     font-size-adjust="none"
     letter-spacing="normal"
     word-spacing="normal"
     ns0:text="\\textsc{N}"
     ns0:preamble=""
     style="font-style:normal;font-variant:normal;font-weight:normal;font-stretch:normal;letter-spacing:normal;word-spacing:normal;text-anchor:start;fill:#ffffff;fill-opacity:1;fill-rule:evenodd;stroke:#ffffff;stroke-linecap:butt;stroke-linejoin:miter;stroke-miterlimit:10.43299961;stroke-dasharray:none;stroke-dashoffset:0;stroke-opacity:1"><path
       d="m 225.98,713.79 -0.01,0.01 v 0.01 l -0.01,0.01 -0.01,0.01 -0.01,0.01 -0.01,0.01 v 0.01 h -0.01 l -0.01,0.01 v 0.01 h -0.01 l -0.01,0.01 v 0 l -0.01,0.01 h -0.01 l -0.01,0.01 v 0 h -0.01 -0.01 l -0.01,0.01 h -0.01 -0.01 -0.01 -0.01 -0.01 l -0.02,0.01 h -0.01 -0.02 -0.01 -0.01 -0.01 -0.01 -0.01 -0.01 -0.01 -1.68 v -0.31 c 0.28,0 0.99,0 1.02,-0.09 0.01,-0.02 0.01,-0.03 0.01,-0.18 v -5.16 c 0,-0.3 0,-0.76 -1.03,-0.76 v -0.31 c 0.35,0.01 0.84,0.03 1.17,0.03 0.33,0 0.81,-0.02 1.16,-0.03 v 0.31 c -1.02,0 -1.02,0.46 -1.02,0.76 v 5.2 l 4.35,-6.15 c 0.08,-0.12 0.13,-0.12 0.18,-0.12 0.14,0 0.14,0.07 0.14,0.28 v 5.46 c 0,0.3 0,0.76 1.02,0.76 v 0.31 c -0.35,-0.01 -0.83,-0.03 -1.16,-0.03 -0.33,0 -0.82,0.02 -1.17,0.03 v -0.31 c 1.03,0 1.03,-0.46 1.03,-0.76 v -4.27 z"
       id="path4969"
       inkscape:connector-curvature="0"
       style="fill:#ffffff;stroke:#ffffff;stroke-width:0" /></g>  <g
     ns0:preamble=""
     ns0:text="\\textsc{Py}"
     word-spacing="normal"
     letter-spacing="normal"
     font-size-adjust="none"
     font-stretch="normal"
     font-weight="normal"
     font-variant="normal"
     font-style="normal"
     stroke-miterlimit="10.433"
     xml:space="preserve"
     transform="matrix(1.4976,0,0,-1.4976,-295.00211,1124.0822)"
     id="g5027"
     style="font-style:normal;font-variant:normal;font-weight:normal;font-stretch:normal;letter-spacing:normal;word-spacing:normal;text-anchor:start;fill:#ffffff;fill-opacity:1;fill-rule:evenodd;stroke:#ffffff;stroke-linecap:butt;stroke-linejoin:miter;stroke-miterlimit:10.43299961;stroke-dasharray:none;stroke-dashoffset:0;stroke-opacity:1"><path
       id="path5029"
       d="m 227.72,710.27 h 0.11 l 0.11,0.01 0.12,0.01 0.11,0.02 0.11,0.02 0.11,0.02 0.11,0.03 0.1,0.03 0.11,0.03 0.1,0.04 0.1,0.04 0.09,0.05 0.1,0.05 0.09,0.05 0.09,0.06 0.08,0.06 0.08,0.06 0.08,0.06 0.07,0.07 0.07,0.07 0.07,0.08 0.06,0.07 0.06,0.08 0.05,0.08 0.04,0.08 0.04,0.09 0.04,0.08 0.02,0.09 0.03,0.09 0.01,0.09 0.01,0.1 0.01,0.09 c 0,0.99 -1.06,1.86 -2.46,1.86 H 224 v -0.31 h 0.24 c 0.77,0 0.79,-0.11 0.79,-0.47 v -5.25 c 0,-0.36 -0.02,-0.47 -0.79,-0.47 H 224 v -0.31 c 0.35,0.03 1.09,0.03 1.46,0.03 0.38,0 1.13,0 1.48,-0.03 v 0.31 h -0.24 c -0.77,0 -0.79,0.11 -0.79,0.47 v 2.37 l -0.03,0.26 v 2.69 c 0,0.33 0.02,0.4 0.49,0.4 h 1.01 c 1.69,0 1.69,-1.1 1.69,-1.55 0,-0.42 0,-1.54 -1.69,-1.54 h -1.5 l 0.03,-0.26 z"
       inkscape:connector-curvature="0"
       style="fill:#ffffff;stroke:#ffffff;stroke-width:0" /><path
       id="path5031"
       d="m 234.14,709.5 -1.38,2.03 c -0.05,0.07 -0.12,0.17 -0.12,0.26 0,0.2 0.29,0.2 0.41,0.2 v 0.25 c -0.26,-0.01 -0.92,-0.03 -1.07,-0.03 -0.27,0 -0.67,0.01 -0.97,0.03 v -0.25 c 0.52,0 0.64,-0.06 0.82,-0.32 l 1.7,-2.5 v -1.33 c 0,-0.41 -0.05,-0.47 -0.72,-0.47 v -0.25 c 0.3,0.01 0.78,0.03 1.06,0.03 0.29,0 0.81,-0.02 1.06,-0.03 v 0.25 c -0.67,0 -0.71,0.06 -0.71,0.5 v 1.29 l 1.44,2.14 c 0.36,0.54 0.69,0.67 1.08,0.69 v 0.25 c -0.21,-0.02 -0.49,-0.03 -0.7,-0.03 -0.27,0 -0.55,0.01 -0.82,0.03 v -0.25 c 0.22,-0.02 0.29,-0.14 0.29,-0.29 0,-0.15 -0.08,-0.27 -0.15,-0.38 z"
       inkscape:connector-curvature="0"
       style="fill:#ffffff;stroke:#ffffff;stroke-width:0" /></g>  <path
     style="fill:none;fill-rule:evenodd;stroke:#000000;stroke-width:2;stroke-linecap:butt;stroke-linejoin:miter;stroke-miterlimit:4;stroke-dasharray:none;stroke-opacity:1"
     d="M 33,40 V 50"
     id="path5072"
     inkscape:connector-curvature="0"
     sodipodi:nodetypes="cc" />
  <path
     sodipodi:nodetypes="cc"
     inkscape:connector-curvature="0"
     id="path899"
     d="M 80,30 H 90"
     style="fill:none;fill-rule:evenodd;stroke:#000000;stroke-width:2;stroke-linecap:butt;stroke-linejoin:miter;stroke-miterlimit:4;stroke-dasharray:none;stroke-opacity:1" />
  <path
     sodipodi:nodetypes="cc"
     inkscape:connector-curvature="0"
     id="path841"
     d="M 67,40 V 50"
     style="fill:none;fill-rule:evenodd;stroke:#000000;stroke-width:2;stroke-linecap:butt;stroke-linejoin:miter;stroke-miterlimit:4;stroke-dasharray:none;stroke-opacity:1" />
  <path
     style="fill:none;fill-rule:evenodd;stroke:#000000;stroke-width:2;stroke-linecap:butt;stroke-linejoin:miter;stroke-miterlimit:4;stroke-dasharray:none;stroke-opacity:1"
     d="M 45,30 H 55"
     id="path843"
     inkscape:connector-curvature="0"
     sodipodi:nodetypes="cc" />
  <path
     sodipodi:nodetypes="cc"
     inkscape:connector-curvature="0"
     id="path845"
     d="M 10,30 H 20"
     style="fill:none;fill-rule:evenodd;stroke:#000000;stroke-width:2;stroke-linecap:butt;stroke-linejoin:miter;stroke-miterlimit:4;stroke-dasharray:none;stroke-opacity:1" />
  <path
     sodipodi:nodetypes="cc"
     inkscape:connector-curvature="0"
     id="path847"
     d="M 33,70 V 80"
     style="fill:none;fill-rule:evenodd;stroke:#000000;stroke-width:2;stroke-linecap:butt;stroke-linejoin:miter;stroke-miterlimit:4;stroke-dasharray:none;stroke-opacity:1" />
  <path
     style="fill:none;fill-rule:evenodd;stroke:#000000;stroke-width:2;stroke-linecap:butt;stroke-linejoin:miter;stroke-miterlimit:4;stroke-dasharray:none;stroke-opacity:1"
     d="M 67,70 V 80"
     id="path849"
     inkscape:connector-curvature="0"
     sodipodi:nodetypes="cc" />
</svg>
