<?xml version="1.0" encoding="UTF-8" standalone="no"?>
<!-- Created with Inkscape (http://www.inkscape.org/) -->

<svg
   xmlns:ns0="http://www.iki.fi/pav/software/textext/"
   xmlns:dc="http://purl.org/dc/elements/1.1/"
   xmlns:cc="http://creativecommons.org/ns#"
   xmlns:rdf="http://www.w3.org/1999/02/22-rdf-syntax-ns#"
   xmlns:svg="http://www.w3.org/2000/svg"
   xmlns="http://www.w3.org/2000/svg"
   xmlns:sodipodi="http://sodipodi.sourceforge.net/DTD/sodipodi-0.dtd"
   xmlns:inkscape="http://www.inkscape.org/namespaces/inkscape"
   sodipodi:docname="logo.svg"
   inkscape:version="0.91 r13725"
   version="1.1"
   id="svg2"
   viewBox="0 0 99.212602 70.866144"
   height="20mm"
   width="28mm"
   inkscape:export-filename="/home/joghurt/phd/numerics/TenPyLight/doc/images/logo.png"
   inkscape:export-xdpi="299.72"
   inkscape:export-ydpi="299.72">
  <sodipodi:namedview
     inkscape:window-maximized="1"
     inkscape:window-y="24"
     inkscape:window-x="0"
     inkscape:window-height="736"
     inkscape:window-width="1358"
     showguides="false"
     inkscape:snap-bbox-midpoints="true"
     inkscape:bbox-paths="false"
     inkscape:snap-bbox="true"
     inkscape:snap-text-baseline="false"
     showgrid="true"
     inkscape:current-layer="layer2"
     inkscape:document-units="px"
     inkscape:cy="21.101021"
     inkscape:cx="56.094285"
     inkscape:zoom="5.6156927"
     inkscape:pageshadow="2"
     inkscape:pageopacity="0.0"
     borderopacity="1.0"
     bordercolor="#666666"
     pagecolor="#ffffff"
     id="base"
     inkscape:object-nodes="true">
    <inkscape:grid
       spacingy="3.543307"
       spacingx="3.5433071"
       units="mm"
       id="grid3411"
       type="xygrid"
       empspacing="4" />
  </sodipodi:namedview>
  <defs
     id="defs4" />
  <metadata
     id="metadata7">
    <rdf:RDF>
      <cc:Work
         rdf:about="">
        <dc:format>image/svg+xml</dc:format>
        <dc:type
           rdf:resource="http://purl.org/dc/dcmitype/StillImage" />
        <dc:title></dc:title>
      </cc:Work>
    </rdf:RDF>
  </metadata>
  <g
     transform="translate(0,-981.49607)"
     id="layer1"
     inkscape:groupmode="layer"
     inkscape:label="Ebene 1" />
  <g
     transform="translate(0,-2.573741e-6)"
     inkscape:label="Ebene 2"
     id="layer2"
     inkscape:groupmode="layer"
     style="display:inline">
    <rect
       y="35.433079"
       x="17.716539"
       height="21.259859"
       width="63.779537"
       id="rect4317"
       style="fill:#7f0000;fill-opacity:1;stroke:#000000;stroke-width:1.00000012;stroke-linecap:round;stroke-linejoin:round;stroke-miterlimit:25;stroke-dasharray:none"
       rx="3.5433071"
       ry="3.5433071" />
    <rect
       y="3.5433159"
       x="14.17323"
       height="21.259842"
       width="28.346458"
       id="rect4324"
       style="fill:#007f00;fill-opacity:1;stroke:#000000;stroke-width:1.00000012;stroke-linecap:round;stroke-linejoin:round;stroke-miterlimit:25;stroke-dasharray:none"
       rx="3.5433071"
       ry="3.5433071" />
    <rect
       style="fill:#007f00;fill-opacity:1;stroke:#000000;stroke-width:1.00000012;stroke-linecap:round;stroke-linejoin:round;stroke-miterlimit:25;stroke-dasharray:none"
       id="rect4327"
       width="28.346458"
       height="21.259842"
       x="56.692913"
       y="3.5433159"
       ry="3.5433071"
       rx="3.5433071" />
  </g>
  <g
     transform="translate(0,-2.573741e-6)"
     inkscape:label="Ebene 3"
     id="layer3"
     inkscape:groupmode="layer">
    <flowRoot
       style="font-style:normal;font-variant:normal;font-weight:normal;font-stretch:normal;font-size:20px;line-height:125%;font-family:'Latin Modern Roman Caps';-inkscape-font-specification:'Latin Modern Roman Caps';text-align:center;letter-spacing:0px;word-spacing:0px;text-anchor:middle;fill:#000000;fill-opacity:1;stroke:none;stroke-width:1px;stroke-linecap:butt;stroke-linejoin:miter;stroke-opacity:1"
       id="flowRoot4269"
       xml:space="preserve"><flowRegion
         id="flowRegion4271"><rect
           style="font-style:normal;font-variant:normal;font-weight:normal;font-stretch:normal;font-size:20px;font-family:'Latin Modern Roman Caps';-inkscape-font-specification:'Latin Modern Roman Caps';text-align:center;text-anchor:middle"
           y="7.0866141"
           x="21.259842"
           height="24.80315"
           width="28.346457"
           id="rect4273" /></flowRegion><flowPara
         style="font-style:normal;font-variant:normal;font-weight:normal;font-stretch:normal;font-size:20px;font-family:'Latin Modern Roman Caps';-inkscape-font-specification:'Latin Modern Roman Caps'"
         id="flowPara4275">Ten</flowPara></flowRoot>    <flowRoot
       transform="translate(2.000077,2.9560658)"
       style="font-style:normal;font-variant:normal;font-weight:normal;font-stretch:normal;font-size:15px;line-height:125%;font-family:'Latin Modern Roman Caps';-inkscape-font-specification:'Latin Modern Roman Caps';letter-spacing:0px;word-spacing:0px;fill:#000000;fill-opacity:1;stroke:none;stroke-width:1px;stroke-linecap:butt;stroke-linejoin:miter;stroke-opacity:1"
       id="flowRoot4277"
       xml:space="preserve"><flowRegion
         id="flowRegion4279"><rect
           style="font-style:normal;font-variant:normal;font-weight:normal;font-stretch:normal;font-family:'Latin Modern Roman Caps';-inkscape-font-specification:'Latin Modern Roman Caps'"
           y="7.0866141"
           x="21.259842"
           height="24.80315"
           width="28.346457"
           id="rect4281" /></flowRegion><flowPara
         style="font-style:normal;font-variant:normal;font-weight:normal;font-stretch:normal;font-size:15px;font-family:'Latin Modern Roman Caps';-inkscape-font-specification:'Latin Modern Roman Caps'"
         id="flowPara4283">Ten</flowPara></flowRoot>  </g>
  <g
     ns0:preamble=""
     ns0:text="\\textsc{Te}"
     word-spacing="normal"
     letter-spacing="normal"
     font-size-adjust="none"
     font-stretch="normal"
     font-weight="normal"
     font-variant="normal"
     font-style="normal"
     stroke-miterlimit="10.433"
     xml:space="preserve"
     transform="matrix(1.872,0,0,-1.872,-402.66282,1344.2199)"
     id="g4909"
     style="font-style:normal;font-variant:normal;font-weight:normal;font-stretch:normal;letter-spacing:normal;word-spacing:normal;text-anchor:start;fill:#ffffff;fill-opacity:1;fill-rule:evenodd;stroke:#ffffff;stroke-linecap:butt;stroke-linejoin:miter;stroke-miterlimit:10.43299961;stroke-dasharray:none;stroke-dashoffset:0;stroke-opacity:1"><path
       id="path4911"
       d="m 230.55,713.87 -6.41,0 -0.19,-2.24 0.25,0 c 0.14,1.67 0.34,1.93 1.9,1.93 0.19,0 0.48,0 0.58,-0.02 0.22,-0.03 0.22,-0.15 0.22,-0.38 l 0,-5.25 c 0,-0.34 0,-0.48 -1.05,-0.48 l -0.39,0 0,-0.31 c 0.4,0.03 1.42,0.03 1.88,0.03 0.46,0 1.48,0 1.89,-0.03 l 0,0.31 -0.4,0 c -1.04,0 -1.04,0.14 -1.04,0.48 l 0,5.25 c 0,0.23 0,0.35 0.22,0.38 0.09,0.02 0.38,0.02 0.57,0.02 1.56,0 1.77,-0.26 1.91,-1.93 l 0.25,0 z"
       inkscape:connector-curvature="0"
       style="fill:#ffffff;stroke:#ffffff;stroke-width:0" /><path
       id="path4913"
       d="m 236.12,712.21 -4.43,0 0,-0.25 c 0.67,0 0.72,-0.05 0.72,-0.46 l 0,-3.66 c 0,-0.41 -0.05,-0.47 -0.72,-0.47 l 0,-0.25 4.55,0 0.29,1.93 -0.25,0 c -0.17,-1.2 -0.4,-1.68 -1.68,-1.68 l -1.08,0 c -0.34,0 -0.39,0.03 -0.39,0.43 l 0,1.84 0.69,0 c 0.74,0 0.86,-0.2 0.86,-0.86 l 0.25,0 0,1.98 -0.25,0 c 0,-0.67 -0.12,-0.87 -0.86,-0.87 l -0.69,0 0,1.65 c 0,0.39 0.05,0.42 0.39,0.42 l 1.02,0 c 1.16,0 1.42,-0.34 1.52,-1.43 l 0.25,0 z"
       inkscape:connector-curvature="0"
       style="fill:#ffffff;stroke:#ffffff;stroke-width:0" /></g>  <g
     id="g4967"
     transform="matrix(1.872,0,0,-1.872,-354.97641,1344.2761)"
     xml:space="preserve"
     stroke-miterlimit="10.433"
     font-style="normal"
     font-variant="normal"
     font-weight="normal"
     font-stretch="normal"
     font-size-adjust="none"
     letter-spacing="normal"
     word-spacing="normal"
     ns0:text="\\textsc{N}"
     ns0:preamble=""
     style="font-style:normal;font-variant:normal;font-weight:normal;font-stretch:normal;letter-spacing:normal;word-spacing:normal;text-anchor:start;fill:#ffffff;fill-opacity:1;fill-rule:evenodd;stroke:#ffffff;stroke-linecap:butt;stroke-linejoin:miter;stroke-miterlimit:10.43299961;stroke-dasharray:none;stroke-dashoffset:0;stroke-opacity:1"><path
       d="m 225.98,713.79 -0.01,0.01 0,0.01 -0.01,0.01 -0.01,0.01 -0.01,0.01 -0.01,0.01 0,0.01 -0.01,0 -0.01,0.01 0,0.01 -0.01,0 -0.01,0.01 0,0 -0.01,0.01 -0.01,0 -0.01,0.01 0,0 -0.01,0 -0.01,0 -0.01,0.01 -0.01,0 -0.01,0 -0.01,0 -0.01,0 -0.01,0 -0.02,0.01 -0.01,0 -0.02,0 -0.01,0 -0.01,0 -0.01,0 -0.01,0 -0.01,0 -0.01,0 -0.01,0 -1.68,0 0,-0.31 c 0.28,0 0.99,0 1.02,-0.09 0.01,-0.02 0.01,-0.03 0.01,-0.18 l 0,-5.16 c 0,-0.3 0,-0.76 -1.03,-0.76 l 0,-0.31 c 0.35,0.01 0.84,0.03 1.17,0.03 0.33,0 0.81,-0.02 1.16,-0.03 l 0,0.31 c -1.02,0 -1.02,0.46 -1.02,0.76 l 0,5.2 4.35,-6.15 c 0.08,-0.12 0.13,-0.12 0.18,-0.12 0.14,0 0.14,0.07 0.14,0.28 l 0,5.46 c 0,0.3 0,0.76 1.02,0.76 l 0,0.31 c -0.35,-0.01 -0.83,-0.03 -1.16,-0.03 -0.33,0 -0.82,0.02 -1.17,0.03 l 0,-0.31 c 1.03,0 1.03,-0.46 1.03,-0.76 l 0,-4.27 z"
       id="path4969"
       inkscape:connector-curvature="0"
       style="fill:#ffffff;stroke:#ffffff;stroke-width:0" /></g>  <g
     ns0:preamble=""
     ns0:text="\\textsc{Py}"
     word-spacing="normal"
     letter-spacing="normal"
     font-size-adjust="none"
     font-stretch="normal"
     font-weight="normal"
     font-variant="normal"
     font-style="normal"
     stroke-miterlimit="10.433"
     xml:space="preserve"
     transform="matrix(1.872,0,0,-1.872,-381.64634,1376.1658)"
     id="g5027"
     style="font-style:normal;font-variant:normal;font-weight:normal;font-stretch:normal;letter-spacing:normal;word-spacing:normal;text-anchor:start;fill:#ffffff;fill-opacity:1;fill-rule:evenodd;stroke:#ffffff;stroke-linecap:butt;stroke-linejoin:miter;stroke-miterlimit:10.43299961;stroke-dasharray:none;stroke-dashoffset:0;stroke-opacity:1"><path
       id="path5029"
       d="m 227.72,710.27 0.11,0 0.11,0.01 0.12,0.01 0.11,0.02 0.11,0.02 0.11,0.02 0.11,0.03 0.1,0.03 0.11,0.03 0.1,0.04 0.1,0.04 0.09,0.05 0.1,0.05 0.09,0.05 0.09,0.06 0.08,0.06 0.08,0.06 0.08,0.06 0.07,0.07 0.07,0.07 0.07,0.08 0.06,0.07 0.06,0.08 0.05,0.08 0.04,0.08 0.04,0.09 0.04,0.08 0.02,0.09 0.03,0.09 0.01,0.09 0.01,0.1 0.01,0.09 c 0,0.99 -1.06,1.86 -2.46,1.86 l -3.64,0 0,-0.31 0.24,0 c 0.77,0 0.79,-0.11 0.79,-0.47 l 0,-5.25 c 0,-0.36 -0.02,-0.47 -0.79,-0.47 l -0.24,0 0,-0.31 c 0.35,0.03 1.09,0.03 1.46,0.03 0.38,0 1.13,0 1.48,-0.03 l 0,0.31 -0.24,0 c -0.77,0 -0.79,0.11 -0.79,0.47 l 0,2.37 -0.03,0.26 0,2.69 c 0,0.33 0.02,0.4 0.49,0.4 l 1.01,0 c 1.69,0 1.69,-1.1 1.69,-1.55 0,-0.42 0,-1.54 -1.69,-1.54 l -1.5,0 0.03,-0.26 z"
       inkscape:connector-curvature="0"
       style="fill:#ffffff;stroke:#ffffff;stroke-width:0" /><path
       id="path5031"
       d="m 234.14,709.5 -1.38,2.03 c -0.05,0.07 -0.12,0.17 -0.12,0.26 0,0.2 0.29,0.2 0.41,0.2 l 0,0.25 c -0.26,-0.01 -0.92,-0.03 -1.07,-0.03 -0.27,0 -0.67,0.01 -0.97,0.03 l 0,-0.25 c 0.52,0 0.64,-0.06 0.82,-0.32 l 1.7,-2.5 0,-1.33 c 0,-0.41 -0.05,-0.47 -0.72,-0.47 l 0,-0.25 c 0.3,0.01 0.78,0.03 1.06,0.03 0.29,0 0.81,-0.02 1.06,-0.03 l 0,0.25 c -0.67,0 -0.71,0.06 -0.71,0.5 l 0,1.29 1.44,2.14 c 0.36,0.54 0.69,0.67 1.08,0.69 l 0,0.25 c -0.21,-0.02 -0.49,-0.03 -0.7,-0.03 -0.27,0 -0.55,0.01 -0.82,0.03 l 0,-0.25 c 0.22,-0.02 0.29,-0.14 0.29,-0.29 0,-0.15 -0.08,-0.27 -0.15,-0.38 z"
       inkscape:connector-curvature="0"
       style="fill:#ffffff;stroke:#ffffff;stroke-width:0" /></g>  <path
     style="fill:none;fill-rule:evenodd;stroke:#000000;stroke-width:2.00000024;stroke-linecap:butt;stroke-linejoin:miter;stroke-miterlimit:4;stroke-dasharray:none;stroke-opacity:1"
     d="m 42.519685,14.173232 14.173229,0"
     id="path5070"
     inkscape:connector-curvature="0" />
  <path
     style="fill:none;fill-rule:evenodd;stroke:#000000;stroke-width:2.00000024;stroke-linecap:butt;stroke-linejoin:miter;stroke-miterlimit:4;stroke-dasharray:none;stroke-opacity:1"
     d="m 28.346457,24.803153 0,10.62992"
     id="path5072"
     inkscape:connector-curvature="0" />
  <path
     style="fill:none;fill-rule:evenodd;stroke:#000000;stroke-width:2.00000024;stroke-linecap:butt;stroke-linejoin:miter;stroke-miterlimit:4;stroke-dasharray:none;stroke-opacity:1"
     d="m 70.866142,24.803153 0,10.62992"
     id="path5074"
     inkscape:connector-curvature="0" />
  <path
     style="fill:none;fill-rule:evenodd;stroke:#000000;stroke-width:2.00000024;stroke-linecap:butt;stroke-linejoin:miter;stroke-miterlimit:4;stroke-dasharray:none;stroke-opacity:1"
     d="m 28.346466,56.692934 0,10.62992"
     id="path5080"
     inkscape:connector-curvature="0" />
  <path
     style="fill:none;fill-rule:evenodd;stroke:#000000;stroke-width:2.00000024;stroke-linecap:butt;stroke-linejoin:miter;stroke-miterlimit:4;stroke-dasharray:none;stroke-opacity:1"
     d="m 70.866151,56.692934 0,10.62992"
     id="path5082"
     inkscape:connector-curvature="0" />
  <path
     style="fill:none;fill-rule:evenodd;stroke:#000000;stroke-width:2.00000024;stroke-linecap:butt;stroke-linejoin:miter;stroke-miterlimit:4;stroke-dasharray:none;stroke-opacity:1"
     d="m 14.173229,14.173232 -10.6299219,0"
     id="path5084"
     inkscape:connector-curvature="0" />
  <path
     style="fill:none;fill-rule:evenodd;stroke:#000000;stroke-width:2.00000024;stroke-linecap:butt;stroke-linejoin:miter;stroke-miterlimit:4;stroke-dasharray:none;stroke-opacity:1"
     d="m 85.039371,14.173232 10.629919,0"
     id="path5086"
     inkscape:connector-curvature="0" />
</svg>
